# Blender v2.79 (sub 0) OBJ File: ''
# www.blender.org
mtllib level.mtl
o Plane
v -1.000000 0.000000 1.000000
v 1.000000 0.000000 1.000000
v -1.000000 0.000000 -1.000000
v 1.000000 0.000000 -1.000000
v -1.000000 0.000000 0.000000
v 0.000000 0.000000 1.000000
v 1.000000 0.000000 0.000000
v 0.000000 0.000000 -1.000000
v 0.000000 0.000000 0.000000
v -1.000000 0.000000 0.500000
v 0.500000 0.000000 1.000000
v 1.000000 0.000000 -0.500000
v -0.500000 0.000000 -1.000000
v -1.000000 0.000000 -0.500000
v -0.500000 0.000000 1.000000
v 1.000000 0.000000 0.500000
v 0.500000 0.000000 -1.000000
v 0.000000 0.000000 -0.500000
v 0.000000 0.000000 0.500000
v -0.500000 0.000000 0.000000
v 0.500000 0.000000 0.000000
v 0.500000 0.000000 0.500000
v -0.500000 0.000000 0.500000
v -0.500000 0.000000 -0.500000
v 0.500000 0.000000 -0.500000
v -1.000000 0.000000 0.750000
v 0.750000 0.000000 1.000000
v 1.000000 0.000000 -0.750000
v -0.750000 0.000000 -1.000000
v -1.000000 0.000000 -0.250000
v -0.250000 0.000000 1.000000
v 1.000000 -0.537414 0.250000
v 0.250000 0.000000 -1.000000
v 0.000000 0.000000 -0.750000
v 0.000000 -0.537414 0.250000
v -0.750000 0.000000 0.000000
v 0.250000 0.000000 0.000000
v -1.000000 -0.537414 0.250000
v 0.250000 0.000000 1.000000
v 1.000000 0.000000 -0.250000
v -0.250000 0.000000 -1.000000
v -1.000000 0.000000 -0.750000
v -0.750000 0.000000 1.000000
v 1.000000 0.000000 0.750000
v 0.750000 0.000000 -1.000000
v 0.000000 0.000000 -0.250000
v 0.000000 0.000000 0.750000
v -0.250000 0.000000 0.000000
v 0.750000 0.000000 0.000000
v 0.500000 -0.537414 0.250000
v 0.500000 0.000000 0.750000
v 0.250000 0.000000 0.500000
v 0.750000 0.000000 0.500000
v -0.500000 -0.537414 0.250000
v -0.500000 0.000000 0.750000
v -0.750000 0.000000 0.500000
v -0.250000 0.000000 0.500000
v -0.500000 0.000000 -0.750000
v -0.500000 0.000000 -0.250000
v -0.750000 0.000000 -0.500000
v -0.250000 0.000000 -0.500000
v 0.500000 0.000000 -0.750000
v 0.500000 0.000000 -0.250000
v 0.250000 0.000000 -0.500000
v 0.750000 0.000000 -0.500000
v 0.750000 0.000000 -0.250000
v 0.250000 0.000000 -0.250000
v 0.250000 0.000000 -0.750000
v -0.250000 0.000000 -0.250000
v -0.750000 0.000000 -0.250000
v -0.750000 0.000000 -0.750000
v -0.250000 0.000000 0.750000
v -0.750000 0.000000 0.750000
v -0.750000 -0.537414 0.250000
v 0.750000 0.000000 0.750000
v 0.250000 0.000000 0.750000
v 0.250000 -0.537414 0.250000
v 0.750000 -0.537414 0.250000
v -0.250000 -0.537414 0.250000
v -0.250000 0.000000 -0.750000
v 0.750000 0.000000 -0.750000
v -1.000000 0.000000 0.875000
v 0.875000 0.000000 1.000000
v 1.000000 0.000000 -0.875000
v -0.875000 0.000000 -1.000000
v -1.000000 0.000000 -0.125000
v -0.125000 0.000000 1.000000
v 1.000000 -0.537414 0.125000
v 0.125000 0.000000 -1.000000
v 0.000000 0.000000 -0.875000
v 0.000000 -0.537414 0.125000
v -0.875000 0.000000 0.000000
v 0.125000 0.000000 0.000000
v -1.000000 -0.537414 0.375000
v 0.375000 0.000000 1.000000
v 1.000000 0.000000 -0.375000
v -0.375000 0.000000 -1.000000
v -1.000000 0.000000 -0.625000
v -0.625000 0.000000 1.000000
v 1.000000 0.000000 0.625000
v 0.625000 0.000000 -1.000000
v 0.000000 0.000000 -0.375000
v 0.000000 0.000000 0.625000
v -0.375000 0.000000 0.000000
v 0.625000 0.000000 0.000000
v 0.500000 -0.537414 0.125000
v 0.500000 0.000000 0.625000
v 0.125000 0.000000 0.500000
v 0.625000 0.000000 0.500000
v -0.500000 -0.537414 0.125000
v -0.500000 0.000000 0.625000
v -0.875000 0.000000 0.500000
v -0.375000 0.000000 0.500000
v -0.500000 0.000000 -0.875000
v -0.500000 0.000000 -0.375000
v -0.875000 0.000000 -0.500000
v -0.375000 0.000000 -0.500000
v 0.500000 0.000000 -0.875000
v 0.500000 0.000000 -0.375000
v 0.125000 0.000000 -0.500000
v 0.625000 0.000000 -0.500000
v -1.000000 0.000000 0.625000
v 0.625000 0.000000 1.000000
v 1.000000 0.000000 -0.625000
v -0.625000 0.000000 -1.000000
v -1.000000 0.000000 -0.375000
v -0.375000 0.000000 1.000000
v 1.000000 -0.537414 0.375000
v 0.375000 0.000000 -1.000000
v 0.000000 0.000000 -0.625000
v 0.000000 -0.537414 0.375000
v -0.625000 0.000000 0.000000
v 0.375000 0.000000 0.000000
v -1.000000 -0.537414 0.125000
v 0.125000 0.000000 1.000000
v 1.000000 0.000000 -0.125000
v -0.125000 0.000000 -1.000000
v -1.000000 0.000000 -0.875000
v -0.875000 0.000000 1.000000
v 1.000000 0.000000 0.875000
v 0.875000 0.000000 -1.000000
v 0.000000 0.000000 -0.125000
v 0.000000 0.000000 0.875000
v -0.125000 0.000000 0.000000
v 0.875000 0.000000 0.000000
v 0.500000 -0.537414 0.375000
v 0.500000 0.000000 0.875000
v 0.375000 0.000000 0.500000
v 0.875000 0.000000 0.500000
v -0.500000 -0.537414 0.375000
v -0.500000 0.000000 0.875000
v -0.625000 0.000000 0.500000
v -0.125000 0.000000 0.500000
v -0.500000 0.000000 -0.625000
v -0.500000 0.000000 -0.125000
v -0.625000 0.000000 -0.500000
v -0.125000 0.000000 -0.500000
v 0.500000 0.000000 -0.625000
v 0.500000 0.000000 -0.125000
v 0.375000 0.000000 -0.500000
v 0.875000 0.000000 -0.500000
v 0.750000 0.000000 -0.375000
v 0.750000 0.000000 -0.125000
v 0.625000 0.000000 -0.250000
v 0.875000 0.000000 -0.250000
v 0.250000 0.000000 -0.375000
v 0.250000 0.000000 -0.125000
v 0.125000 0.000000 -0.250000
v 0.375000 0.000000 -0.250000
v 0.250000 0.000000 -0.875000
v 0.250000 0.000000 -0.625000
v 0.125000 0.000000 -0.750000
v 0.375000 0.000000 -0.750000
v -0.250000 0.000000 -0.375000
v -0.250000 0.000000 -0.125000
v -0.375000 0.000000 -0.250000
v -0.125000 0.000000 -0.250000
v -0.750000 0.000000 -0.375000
v -0.750000 0.000000 -0.125000
v -0.875000 0.000000 -0.250000
v -0.625000 0.000000 -0.250000
v -0.750000 0.000000 -0.875000
v -0.750000 0.000000 -0.625000
v -0.875000 0.000000 -0.750000
v -0.625000 0.000000 -0.750000
v -0.250000 0.000000 0.625000
v -0.250000 0.000000 0.875000
v -0.375000 0.000000 0.750000
v -0.125000 0.000000 0.750000
v -0.750000 0.000000 0.625000
v -0.750000 0.000000 0.875000
v -0.875000 0.000000 0.750000
v -0.625000 0.000000 0.750000
v -0.750000 -0.537414 0.125000
v -0.750000 -0.537414 0.375000
v -0.875000 -0.537414 0.250000
v -0.625000 -0.537414 0.250000
v 0.750000 0.000000 0.625000
v 0.750000 0.000000 0.875000
v 0.625000 0.000000 0.750000
v 0.875000 0.000000 0.750000
v 0.250000 0.000000 0.625000
v 0.250000 0.000000 0.875000
v 0.125000 0.000000 0.750000
v 0.375000 0.000000 0.750000
v 0.250000 -0.537414 0.125000
v 0.250000 -0.537414 0.375000
v 0.125000 -0.537414 0.250000
v 0.375000 -0.537414 0.250000
v 0.750000 -0.537414 0.125000
v 0.750000 -0.537414 0.375000
v 0.625000 -0.537414 0.250000
v 0.875000 -0.537414 0.250000
v -0.250000 -0.537414 0.125000
v -0.250000 -0.537414 0.375000
v -0.375000 -0.537414 0.250000
v -0.125000 -0.537414 0.250000
v -0.250000 0.000000 -0.875000
v -0.250000 0.000000 -0.625000
v -0.375000 0.000000 -0.750000
v -0.125000 0.000000 -0.750000
v 0.750000 0.000000 -0.875000
v 0.750000 0.000000 -0.625000
v 0.625000 0.000000 -0.750000
v 0.875000 0.000000 -0.750000
v 0.875000 0.000000 -0.625000
v 0.625000 0.000000 -0.625000
v 0.625000 0.000000 -0.875000
v -0.125000 0.000000 -0.625000
v -0.375000 0.000000 -0.625000
v -0.375000 0.000000 -0.875000
v -0.125000 -0.537414 0.375000
v -0.375000 -0.537414 0.375000
v -0.375000 -0.537414 0.125000
v 0.875000 -0.537414 0.375000
v 0.625000 -0.537414 0.375000
v 0.625000 -0.537414 0.125000
v 0.375000 -0.537414 0.375000
v 0.125000 -0.537414 0.375000
v 0.125000 -0.537414 0.125000
v 0.375000 0.000000 0.875000
v 0.125000 0.000000 0.875000
v 0.125000 0.000000 0.625000
v 0.875000 0.000000 0.875000
v 0.625000 0.000000 0.875000
v 0.625000 0.000000 0.625000
v -0.625000 -0.537414 0.375000
v -0.875000 -0.537414 0.375000
v -0.875000 -0.537414 0.125000
v -0.625000 0.000000 0.875000
v -0.875000 0.000000 0.875000
v -0.875000 0.000000 0.625000
v -0.125000 0.000000 0.875000
v -0.375000 0.000000 0.875000
v -0.375000 0.000000 0.625000
v -0.625000 0.000000 -0.625000
v -0.875000 0.000000 -0.625000
v -0.875000 0.000000 -0.875000
v -0.625000 0.000000 -0.125000
v -0.875000 0.000000 -0.125000
v -0.875000 0.000000 -0.375000
v -0.125000 0.000000 -0.125000
v -0.375000 0.000000 -0.125000
v -0.375000 0.000000 -0.375000
v 0.375000 0.000000 -0.625000
v 0.125000 0.000000 -0.625000
v 0.125000 0.000000 -0.875000
v 0.375000 0.000000 -0.125000
v 0.125000 0.000000 -0.125000
v 0.125000 0.000000 -0.375000
v 0.875000 0.000000 -0.125000
v 0.625000 0.000000 -0.125000
v 0.625000 0.000000 -0.375000
v 0.875000 0.000000 -0.375000
v 0.375000 0.000000 -0.375000
v 0.375000 0.000000 -0.875000
v -0.125000 0.000000 -0.375000
v -0.625000 0.000000 -0.375000
v -0.625000 0.000000 -0.875000
v -0.125000 0.000000 0.625000
v -0.625000 0.000000 0.625000
v -0.625000 -0.537414 0.125000
v 0.875000 0.000000 0.625000
v 0.375000 0.000000 0.625000
v 0.375000 -0.537414 0.125000
v 0.875000 -0.537414 0.125000
v -0.125000 -0.537414 0.125000
v -0.125000 0.000000 -0.875000
v 0.875000 0.000000 -0.875000
vn 0.0000 1.0000 0.0000
vn 0.0000 0.2265 0.9740
vn 0.0000 0.2265 -0.9740
usemtl None
s off
f 289//1 84//1 4//1 141//1
f 288//1 90//1 8//1 137//1
f 287//2 91//2 9//2 144//2
f 286//2 88//2 7//2 145//2
f 285//2 106//2 21//2 133//2
f 284//1 107//1 22//1 148//1
f 283//1 100//1 16//1 149//1
f 282//2 110//2 20//2 132//2
f 281//1 111//1 23//1 152//1
f 280//1 103//1 19//1 153//1
f 279//1 114//1 13//1 125//1
f 278//1 115//1 24//1 156//1
f 277//1 102//1 18//1 157//1
f 276//1 118//1 17//1 129//1
f 275//1 119//1 25//1 160//1
f 274//1 96//1 12//1 161//1
f 273//1 162//1 65//1 121//1
f 272//1 163//1 66//1 164//1
f 271//1 136//1 40//1 165//1
f 270//1 166//1 64//1 120//1
f 269//1 167//1 67//1 168//1
f 268//1 159//1 63//1 169//1
f 267//1 170//1 33//1 89//1
f 266//1 171//1 68//1 172//1
f 265//1 158//1 62//1 173//1
f 264//1 174//1 61//1 117//1
f 263//1 175//1 69//1 176//1
f 262//1 142//1 46//1 177//1
f 261//1 178//1 60//1 116//1
f 260//1 179//1 70//1 180//1
f 259//1 155//1 59//1 181//1
f 258//1 182//1 29//1 85//1
f 257//1 183//1 71//1 184//1
f 256//1 154//1 58//1 185//1
f 255//1 186//1 57//1 113//1
f 254//1 187//1 72//1 188//1
f 253//1 143//1 47//1 189//1
f 252//1 190//1 56//1 112//1
f 251//1 191//1 73//1 192//1
f 250//1 151//1 55//1 193//1
f 249//2 194//2 36//2 92//2
f 248//1 195//1 74//1 196//1
f 247//1 150//1 54//1 197//1
f 246//1 198//1 53//1 109//1
f 245//1 199//1 75//1 200//1
f 244//1 140//1 44//1 201//1
f 243//1 202//1 52//1 108//1
f 242//1 203//1 76//1 204//1
f 241//1 147//1 51//1 205//1
f 240//2 206//2 37//2 93//2
f 239//1 207//1 77//1 208//1
f 238//1 146//1 50//1 209//1
f 237//2 210//2 49//2 105//2
f 236//1 211//1 78//1 212//1
f 235//1 128//1 32//1 213//1
f 234//2 214//2 48//2 104//2
f 233//1 215//1 79//1 216//1
f 232//1 131//1 35//1 217//1
f 231//1 218//1 41//1 97//1
f 230//1 219//1 80//1 220//1
f 229//1 130//1 34//1 221//1
f 228//1 222//1 45//1 101//1
f 227//1 223//1 81//1 224//1
f 226//1 124//1 28//1 225//1
f 223//1 226//1 225//1 81//1
f 65//1 161//1 226//1 223//1
f 161//1 12//1 124//1 226//1
f 158//1 227//1 224//1 62//1
f 25//1 121//1 227//1 158//1
f 121//1 65//1 223//1 227//1
f 118//1 228//1 101//1 17//1
f 62//1 224//1 228//1 118//1
f 224//1 81//1 222//1 228//1
f 219//1 229//1 221//1 80//1
f 61//1 157//1 229//1 219//1
f 157//1 18//1 130//1 229//1
f 154//1 230//1 220//1 58//1
f 24//1 117//1 230//1 154//1
f 117//1 61//1 219//1 230//1
f 114//1 231//1 97//1 13//1
f 58//1 220//1 231//1 114//1
f 220//1 80//1 218//1 231//1
f 215//1 232//1 217//1 79//1
f 57//3 153//3 232//3 215//3
f 153//3 19//3 131//3 232//3
f 150//1 233//1 216//1 54//1
f 23//3 113//3 233//3 150//3
f 113//3 57//3 215//3 233//3
f 110//2 234//2 104//2 20//2
f 54//1 216//1 234//1 110//1
f 216//1 79//1 214//1 234//1
f 211//1 235//1 213//1 78//1
f 53//3 149//3 235//3 211//3
f 149//3 16//3 128//3 235//3
f 146//1 236//1 212//1 50//1
f 22//3 109//3 236//3 146//3
f 109//3 53//3 211//3 236//3
f 106//2 237//2 105//2 21//2
f 50//1 212//1 237//1 106//1
f 212//1 78//1 210//1 237//1
f 207//1 238//1 209//1 77//1
f 52//3 148//3 238//3 207//3
f 148//3 22//3 146//3 238//3
f 131//1 239//1 208//1 35//1
f 19//3 108//3 239//3 131//3
f 108//3 52//3 207//3 239//3
f 91//2 240//2 93//2 9//2
f 35//1 208//1 240//1 91//1
f 208//1 77//1 206//1 240//1
f 203//1 241//1 205//1 76//1
f 39//1 95//1 241//1 203//1
f 95//1 11//1 147//1 241//1
f 143//1 242//1 204//1 47//1
f 6//1 135//1 242//1 143//1
f 135//1 39//1 203//1 242//1
f 103//1 243//1 108//1 19//1
f 47//1 204//1 243//1 103//1
f 204//1 76//1 202//1 243//1
f 199//1 244//1 201//1 75//1
f 27//1 83//1 244//1 199//1
f 83//1 2//1 140//1 244//1
f 147//1 245//1 200//1 51//1
f 11//1 123//1 245//1 147//1
f 123//1 27//1 199//1 245//1
f 107//1 246//1 109//1 22//1
f 51//1 200//1 246//1 107//1
f 200//1 75//1 198//1 246//1
f 195//1 247//1 197//1 74//1
f 56//3 152//3 247//3 195//3
f 152//3 23//3 150//3 247//3
f 94//1 248//1 196//1 38//1
f 10//3 112//3 248//3 94//3
f 112//3 56//3 195//3 248//3
f 134//2 249//2 92//2 5//2
f 38//1 196//1 249//1 134//1
f 196//1 74//1 194//1 249//1
f 191//1 250//1 193//1 73//1
f 43//1 99//1 250//1 191//1
f 99//1 15//1 151//1 250//1
f 82//1 251//1 192//1 26//1
f 1//1 139//1 251//1 82//1
f 139//1 43//1 191//1 251//1
f 122//1 252//1 112//1 10//1
f 26//1 192//1 252//1 122//1
f 192//1 73//1 190//1 252//1
f 187//1 253//1 189//1 72//1
f 31//1 87//1 253//1 187//1
f 87//1 6//1 143//1 253//1
f 151//1 254//1 188//1 55//1
f 15//1 127//1 254//1 151//1
f 127//1 31//1 187//1 254//1
f 111//1 255//1 113//1 23//1
f 55//1 188//1 255//1 111//1
f 188//1 72//1 186//1 255//1
f 183//1 256//1 185//1 71//1
f 60//1 156//1 256//1 183//1
f 156//1 24//1 154//1 256//1
f 98//1 257//1 184//1 42//1
f 14//1 116//1 257//1 98//1
f 116//1 60//1 183//1 257//1
f 138//1 258//1 85//1 3//1
f 42//1 184//1 258//1 138//1
f 184//1 71//1 182//1 258//1
f 179//1 259//1 181//1 70//1
f 36//1 132//1 259//1 179//1
f 132//1 20//1 155//1 259//1
f 86//1 260//1 180//1 30//1
f 5//1 92//1 260//1 86//1
f 92//1 36//1 179//1 260//1
f 126//1 261//1 116//1 14//1
f 30//1 180//1 261//1 126//1
f 180//1 70//1 178//1 261//1
f 175//1 262//1 177//1 69//1
f 48//1 144//1 262//1 175//1
f 144//1 9//1 142//1 262//1
f 155//1 263//1 176//1 59//1
f 20//1 104//1 263//1 155//1
f 104//1 48//1 175//1 263//1
f 115//1 264//1 117//1 24//1
f 59//1 176//1 264//1 115//1
f 176//1 69//1 174//1 264//1
f 171//1 265//1 173//1 68//1
f 64//1 160//1 265//1 171//1
f 160//1 25//1 158//1 265//1
f 130//1 266//1 172//1 34//1
f 18//1 120//1 266//1 130//1
f 120//1 64//1 171//1 266//1
f 90//1 267//1 89//1 8//1
f 34//1 172//1 267//1 90//1
f 172//1 68//1 170//1 267//1
f 167//1 268//1 169//1 67//1
f 37//1 133//1 268//1 167//1
f 133//1 21//1 159//1 268//1
f 142//1 269//1 168//1 46//1
f 9//1 93//1 269//1 142//1
f 93//1 37//1 167//1 269//1
f 102//1 270//1 120//1 18//1
f 46//1 168//1 270//1 102//1
f 168//1 67//1 166//1 270//1
f 163//1 271//1 165//1 66//1
f 49//1 145//1 271//1 163//1
f 145//1 7//1 136//1 271//1
f 159//1 272//1 164//1 63//1
f 21//1 105//1 272//1 159//1
f 105//1 49//1 163//1 272//1
f 119//1 273//1 121//1 25//1
f 63//1 164//1 273//1 119//1
f 164//1 66//1 162//1 273//1
f 162//1 274//1 161//1 65//1
f 66//1 165//1 274//1 162//1
f 165//1 40//1 96//1 274//1
f 166//1 275//1 160//1 64//1
f 67//1 169//1 275//1 166//1
f 169//1 63//1 119//1 275//1
f 170//1 276//1 129//1 33//1
f 68//1 173//1 276//1 170//1
f 173//1 62//1 118//1 276//1
f 174//1 277//1 157//1 61//1
f 69//1 177//1 277//1 174//1
f 177//1 46//1 102//1 277//1
f 178//1 278//1 156//1 60//1
f 70//1 181//1 278//1 178//1
f 181//1 59//1 115//1 278//1
f 182//1 279//1 125//1 29//1
f 71//1 185//1 279//1 182//1
f 185//1 58//1 114//1 279//1
f 186//1 280//1 153//1 57//1
f 72//1 189//1 280//1 186//1
f 189//1 47//1 103//1 280//1
f 190//1 281//1 152//1 56//1
f 73//1 193//1 281//1 190//1
f 193//1 55//1 111//1 281//1
f 194//2 282//2 132//2 36//2
f 74//1 197//1 282//1 194//1
f 197//1 54//1 110//1 282//1
f 198//1 283//1 149//1 53//1
f 75//1 201//1 283//1 198//1
f 201//1 44//1 100//1 283//1
f 202//1 284//1 148//1 52//1
f 76//1 205//1 284//1 202//1
f 205//1 51//1 107//1 284//1
f 206//2 285//2 133//2 37//2
f 77//1 209//1 285//1 206//1
f 209//1 50//1 106//1 285//1
f 210//2 286//2 145//2 49//2
f 78//1 213//1 286//1 210//1
f 213//1 32//1 88//1 286//1
f 214//2 287//2 144//2 48//2
f 79//1 217//1 287//1 214//1
f 217//1 35//1 91//1 287//1
f 218//1 288//1 137//1 41//1
f 80//1 221//1 288//1 218//1
f 221//1 34//1 90//1 288//1
f 222//1 289//1 141//1 45//1
f 81//1 225//1 289//1 222//1
f 225//1 28//1 84//1 289//1
